<svg width="400" height="400" xmlns="http://www.w3.org/2000/svg">
    <defs />
    <g id="Concentric" fill="none" stroke="black" stroke-width="4" >
        <animateTransform dur="20s" repeatCount="indefinite"
            attributeName="transform"
            type="translate"
            values="0 0 ; -50 0 ; 0 0" />
        <circle cx="200" cy="200" r="10" />
        <circle cx="200" cy="200" r="20" />
        <circle cx="200" cy="200" r="30" />
        <circle cx="200" cy="200" r="40" />
        <circle cx="200" cy="200" r="50" />
        <circle cx="200" cy="200" r="60" />
        <circle cx="200" cy="200" r="70" />
        <circle cx="200" cy="200" r="80" />
        <circle cx="200" cy="200" r="90" />
        <circle cx="200" cy="200" r="100" />
        <circle cx="200" cy="200" r="110" />
        <circle cx="200" cy="200" r="120" />
        <circle cx="200" cy="200" r="130" />
        <circle cx="200" cy="200" r="140" />
        <circle cx="200" cy="200" r="150" />
        <circle cx="200" cy="200" r="160" />
        <circle cx="200" cy="200" r="170" />
        <circle cx="200" cy="200" r="180" />
        <circle cx="200" cy="200" r="190" />
        <circle cx="200" cy="200" r="200" />
        <circle cx="200" cy="200" r="210" />
        <circle cx="200" cy="200" r="220" />
        <circle cx="200" cy="200" r="230" />
        <circle cx="200" cy="200" r="240" />
        <circle cx="200" cy="200" r="250" />
        <circle cx="200" cy="200" r="260" />
        <circle cx="200" cy="200" r="270" />
        <circle cx="200" cy="200" r="280" />
        <circle cx="200" cy="200" r="290" />
    </g>

    <use href="#Concentric">
        <animateTransform dur="20s" repeatCount="indefinite"
            attributeName="transform"
            type="translate"
            values="0 0 ; 100 0 ; 0 0" />
    </use>
</svg>